<?xml version="1.0" encoding="UTF-8" standalone="no"?> <svg xmlns="http://www.w3.org/2000/svg" xmlns:xlink="http://www.w3.org/1999/xlink" viewBox="0 0 64 64"><defs><style>.cls-1{fill:url(#linear-gradient);}.cls-2{fill:#fff;}</style><linearGradient id="linear-gradient" x1="3.25" y1="32" x2="60.75" y2="32" gradientUnits="userSpaceOnUse"><stop offset="0" stop-color="#5bb4f6"/><stop offset="0.61" stop-color="#2191e5"/><stop offset="1" stop-color="#007edb"/></linearGradient></defs><g id="Layer_30" data-name="Layer 30"><rect class="cls-1" x="3.25" y="3.25" width="57.5" height="57.5" rx="28.75"/><path class="cls-2" d="M44.29,16.34H27.87a.75.75,0,0,0,0,1.5H44.29a3.06,3.06,0,0,1,3.07,3.07V44.32a3.06,3.06,0,0,1-3.07,3.06H20.88a3.06,3.06,0,0,1-3.06-3.06V27.89a.75.75,0,0,0-1.5,0V44.32a4.57,4.57,0,0,0,4.56,4.56H44.29a4.57,4.57,0,0,0,4.57-4.56V20.91A4.58,4.58,0,0,0,44.29,16.34Z"/><path class="cls-2" d="M34,39.7a.76.76,0,0,0,.25.16L42,43a.76.76,0,0,0,1-1l-3.14-7.75a.67.67,0,0,0-.16-.25L22.24,16.54a4,4,0,0,0-5.68,5.67ZM41,40.94l-6-2.41L20.3,23.83l1.77-1.78,1.78-1.77L38.55,35ZM17.62,17.6a2.5,2.5,0,0,1,3.55,0l1.62,1.61L21,21l-1.77,1.78-1.62-1.62A2.51,2.51,0,0,1,17.62,17.6Z"/></g></svg>