<?xml version="1.0" encoding="UTF-8" standalone="no"?> <svg id="Layer_1" data-name="Layer 1" xmlns="http://www.w3.org/2000/svg" xmlns:xlink="http://www.w3.org/1999/xlink" viewBox="0 0 100 100"><defs><style>.cls-1{fill:url(#linear-gradient);}.cls-2{fill:url(#linear-gradient-2);}.cls-3{fill:url(#linear-gradient-3);}.cls-4{fill:#6cc4c7;}</style><linearGradient id="linear-gradient" x1="3" y1="50" x2="97" y2="50" gradientUnits="userSpaceOnUse"><stop offset="0" stop-color="#6cc4c7"/><stop offset="0.81" stop-color="#35398e"/></linearGradient><linearGradient id="linear-gradient-2" x1="48.2" y1="44" x2="88.04" y2="44" xlink:href="#linear-gradient"/><linearGradient id="linear-gradient-3" x1="48.2" y1="54.91" x2="88.04" y2="54.91" xlink:href="#linear-gradient"/></defs><path class="cls-1" d="M88.79,30.46a10.71,10.71,0,0,0-10.45-8.89H38.07l-7.82-7.81H8.06A5.07,5.07,0,0,0,3,18.82V71.87A14.29,14.29,0,0,0,17.18,86.24h69.2A10.62,10.62,0,0,0,97,75.63V40.79A10.63,10.63,0,0,0,88.79,30.46ZM17.18,83A11,11,0,0,1,6.27,71.87v-53A1.79,1.79,0,0,1,8.06,17H28.89l7.82,7.82H78.34a7.4,7.4,0,0,1,7,5.33H29.16A10.63,10.63,0,0,0,18.54,40.79V83Zm76.55-7.34A7.35,7.35,0,0,1,86.38,83H21.82V40.79a7.34,7.34,0,0,1,7.34-7.34H86.38a7.35,7.35,0,0,1,7.35,7.34Z"/><rect class="cls-2" x="48.2" y="42.37" width="39.84" height="3.27"/><rect class="cls-3" x="48.2" y="53.27" width="39.84" height="3.27"/><path class="cls-4" d="M43.35,41.37H27.5A1.63,1.63,0,0,0,25.87,43V55.9a1.63,1.63,0,0,0,1.63,1.64H43.35A1.64,1.64,0,0,0,45,55.9V43A1.64,1.64,0,0,0,43.35,41.37Zm-1.64,12.9H29.14V44.64H41.71Z"/></svg>