<?xml version="1.0" encoding="UTF-8"?>
<!DOCTYPE svg PUBLIC "-//W3C//DTD SVG 1.1//EN" "http://www.w3.org/Graphics/SVG/1.1/DTD/svg11.dtd">
<!-- Creator: CorelDRAW -->
<svg xmlns="http://www.w3.org/2000/svg" xml:space="preserve" width="1.70666in" height="1.70666in" style="shape-rendering:geometricPrecision; text-rendering:geometricPrecision; image-rendering:optimizeQuality; fill-rule:evenodd; clip-rule:evenodd"
viewBox="0 0 1.70666 1.70666"
 xmlns:xlink="http://www.w3.org/1999/xlink">
 <defs>
  <style type="text/css">
   <![CDATA[
    .fil0 {fill:#333333}
    .fil2 {fill:#4BD381}
    .fil1 {fill:#FFCF00}
   ]]>
  </style>
 </defs>
 <g id="Layer_x0020_1">
  <metadata id="CorelCorpID_0Corel-Layer"/>
  <path class="fil0" d="M1.59539 0.874996c-0.00990945,-0.00312598 -0.0123543,-0.00247638 -0.0182795,-0.0100354l-0.0895591 -0.140744c-0.015315,-0.0240669 0.0212402,-0.0473307 0.0365591,-0.0232677l0.0453071 0.0711969c-0.0406732,-0.383894 -0.366374,-0.683992 -0.76087,-0.683992 -0.421921,0 -0.765173,0.343256 -0.765173,0.765173 0,0.421917 0.343252,0.765177 0.765173,0.765177 0.0285276,0 0.0285197,0.0433307 0,0.0433307 -0.446783,0 -0.808508,-0.361728 -0.808508,-0.808508 0,-0.446783 0.361724,-0.808504 0.808508,-0.808504 0.421028,0 0.770224,0.322512 0.805555,0.738744l0.0525709 -0.0826181c0.0153189,-0.0240669 0.0518701,-0.000799213 0.036563,0.0232677 -0.0132402,0.020811 -0.0855079,0.139173 -0.0946024,0.14626l-0.0132441 0.00451969zm-0.786843 0.592508c-0.342752,0 -0.614173,-0.279177 -0.614173,-0.614177 0,-0.335 0.271425,-0.614173 0.614173,-0.614173 0.342744,0 0.614173,0.279173 0.614173,0.614173 0,0.335 -0.271429,0.614177 -0.614173,0.614177zm-0.0216654 -1.18457c-0.194142,0.00728346 -0.36378,0.111976 -0.461354,0.266508l0.171327 0.0989134c0.024937,0.0143937 0.00286614,0.051685 -0.0216654,0.0375236l-0.171382 -0.0989449c-0.0881772,0.166362 -0.0881693,0.366417 0,0.532783l0.171382 -0.0989449c0.0247008,-0.0142756 0.0463622,0.0232638 0.0216654,0.0375236l-0.171323 0.0989173c0.0975787,0.154531 0.267209,0.25922 0.46135,0.266504l0 -0.197969c0,-0.0285236 0.0433307,-0.0285236 0.0433307,0l0 0.197969c0.194138,-0.0072874 0.363772,-0.111961 0.46135,-0.266504l-0.171319 -0.0989134c-0.0247047,-0.0142677 -0.00302756,-0.0517953 0.0216654,-0.0375236l0.171374 0.0989449c0.0881772,-0.166362 0.0881811,-0.366429 0,-0.532791l-0.171374 0.0989449c-0.0245197,0.0141732 -0.0466063,-0.023122 -0.0216654,-0.0375236l0.171319 -0.0989134c-0.0975827,-0.154528 -0.267209,-0.25922 -0.46135,-0.266504l0 0.197969c0,0.0285236 -0.0433307,0.0285276 -0.0433307,0l0 -0.197969zm0 0.493122l0 -0.163866c0,-0.0285236 0.0433307,-0.0285236 0.0433307,0l0 0.163866c0.0889528,0.0249724 0.0710276,0.1575 -0.0216614,0.1575 -0.092689,0 -0.11061,-0.132528 -0.0216693,-0.1575zm0.0216693 0.0403583c-0.0485748,0 -0.0485709,0.0738071 0,0.0738071 0.0485669,0 0.0485748,-0.0738071 0,-0.0738071z"/>
  <path class="fil1" d="M0.808551 0.890224c0.0485669,0 0.0485748,-0.0738071 0,-0.0738071 -0.0485748,0 -0.0485709,0.0738071 0,0.0738071z"/>
  <path class="fil2" d="M0.830213 0.776059c0.0889528,0.0249724 0.0710276,0.1575 -0.0216614,0.1575 -0.092689,0 -0.11061,-0.132528 -0.0216693,-0.1575l0 -0.163866c0,-0.0285236 0.0433307,-0.0285236 0.0433307,0l0 0.163866zm0.483071 0.343665c0.0881772,-0.166362 0.0881811,-0.366429 0,-0.532791l-0.171374 0.0989449c-0.0245197,0.0141732 -0.0466063,-0.023122 -0.0216654,-0.0375236l0.171319 -0.0989134c-0.0975827,-0.154528 -0.267209,-0.25922 -0.46135,-0.266504l0 0.197969c0,0.0285236 -0.0433307,0.0285276 -0.0433307,0l0 -0.197969c-0.194142,0.00728346 -0.36378,0.111976 -0.461354,0.266508l0.171327 0.0989134c0.024937,0.0143937 0.00286614,0.051685 -0.0216654,0.0375236l-0.171382 -0.0989449c-0.0881772,0.166362 -0.0881693,0.366417 0,0.532783l0.171382 -0.0989449c0.0247008,-0.0142756 0.0463622,0.0232638 0.0216654,0.0375236l-0.171323 0.0989173c0.0975787,0.154531 0.267209,0.25922 0.46135,0.266504l0 -0.197969c0,-0.0285236 0.0433307,-0.0285236 0.0433307,0l0 0.197969c0.194138,-0.0072874 0.363772,-0.111961 0.46135,-0.266504l-0.171319 -0.0989134c-0.0247047,-0.0142677 -0.00302756,-0.0517953 0.0216654,-0.0375236l0.171374 0.0989449z"/>
 </g>
</svg>
